
<svg width="205px" height="107px" viewBox="0 0 205 107" version="1.1" xmlns="http://www.w3.org/2000/svg" >
    <defs>
        <path d="M33.575,20 C33.295,22.59 33.155,24.55 33.155,25.95 L33.155,30.15 C33.155,34.98 34.135,37.36 36.095,37.36 C37.495,37.36 39.665,35.33 39.665,33.58 C39.665,33.44 39.525,33.37 39.175,33.37 L38.405,33.37 C36.375,33.37 35.395,32.25 35.395,30.08 C35.395,28.4 36.725,26.16 38.055,25.81 C38.545,25.67 39.035,25.6 39.525,25.6 C40.015,25.6 40.855,25.74 42.185,25.88 C44.705,26.16 46.175,27.07 46.595,28.68 C46.945,29.87 47.085,31.27 47.085,32.81 C47.085,35.54 46.455,38.27 45.265,41 C44.075,43.66 42.535,45.55 40.505,46.88 C39.175,47.72 37.635,48.21 35.955,48.21 C34.765,48.21 33.505,47.93 32.175,47.44 C29.935,46.67 28.185,44.57 26.995,41.28 C25.735,37.85 25.105,33.58 25.105,28.61 C25.105,24.06 25.805,18.67 27.275,12.44 C28.465,7.54 30.215,4.18 32.455,2.29 C33.785,1.17 35.885,0.61 38.825,0.61 C42.395,0.61 45.825,2.43 46.455,5.3 C46.665,6.21 46.805,7.54 46.805,9.22 C46.805,13.07 46.035,15.94 44.565,17.76 C43.795,18.67 42.955,19.09 41.905,19.09 C41.345,19.09 40.785,18.95 40.155,18.6 C39.385,18.11 38.965,17.13 38.965,15.66 L38.965,12.72 C38.755,10.9 38.335,9.92 37.565,9.85 L37.425,9.85 L37.285,9.78 C35.675,9.78 34.415,13.21 33.575,20 Z M60.945,1.38 L61.365,1.38 C63.955,1.38 65.915,2.36 67.315,4.32 C69.135,6.91 70.185,11.6 70.185,18.39 C70.185,22.52 70.115,26.72 70.045,30.99 C69.975,35.12 69.415,38.41 68.645,40.93 C67.945,43.17 66.755,44.99 64.865,46.32 C62.905,47.65 60.875,48.28 58.705,48.28 C56.815,48.28 55.065,47.44 53.385,45.76 C50.655,43.03 49.255,37.15 49.255,28.26 C49.255,22.94 49.885,17.34 51.215,11.39 C51.635,9.5 52.265,7.61 53.245,6 C55.065,2.99 57.655,1.38 60.945,1.38 Z M62.135,22.17 L62.135,17.06 C62.135,14.47 61.645,13.14 60.735,13.14 C59.405,13.14 58.565,14.89 58.215,18.46 L58.215,18.74 L58.145,19.23 C57.865,21.26 57.865,23.71 57.865,26.58 C57.865,28.19 57.935,30.15 58.145,32.46 C58.145,34.07 58.215,37.71 60.105,37.71 C61.015,37.71 61.505,36.66 61.715,34.56 C61.925,32.74 62.065,30.22 62.065,27.07 C62.065,25.88 62.135,23.22 62.135,22.17 Z M83.905,27.77 C83.905,26.37 83.905,24.27 83.975,21.47 C84.045,18.6 84.115,16.5 84.115,15.03 C84.115,14.19 84.045,11.81 84.045,11.04 C84.045,8.45 84.185,6.42 84.535,4.81 C84.815,3.34 85.935,2.43 87.685,2.08 C89.575,1.73 90.695,1.66 92.865,1.66 C98.815,1.66 102.315,3.69 103.505,7.68 C103.925,9.22 104.205,10.48 104.205,11.53 L104.205,13.7 C104.205,16.15 103.995,18.04 103.505,19.37 C102.805,21.19 101.895,23.15 100.285,24.76 L100.215,24.83 C100.145,24.9 100.145,24.9 100.145,24.97 L102.105,26.51 C103.015,27.21 103.925,28.47 104.205,29.66 C104.415,30.85 104.555,31.83 104.555,32.53 C104.555,34.42 104.065,36.73 103.155,39.53 C102.665,41.07 100.565,43.24 99.725,44.43 C99.025,45.34 97.905,46.32 96.435,47.37 C93.985,49.05 91.465,49.89 88.945,49.89 C85.725,49.89 84.045,48.49 83.835,45.62 C83.765,44.08 83.765,42.89 83.765,42.12 C83.765,41.14 83.765,39.67 83.835,37.64 C83.905,35.61 83.975,34.07 83.975,33.02 C83.975,31.83 83.905,28.96 83.905,27.77 Z M92.095,40.02 L92.095,40.23 C92.375,40.23 92.795,39.95 93.285,39.39 C93.915,38.62 94.545,37.5 95.245,36.1 C95.595,35.12 95.805,33.79 95.805,32.11 C95.805,31.55 95.735,30.78 95.665,29.87 C95.455,28.68 94.475,27.84 92.655,27.49 C92.445,27.98 92.375,28.33 92.305,28.54 C92.095,31.41 91.955,34 91.955,36.38 C91.955,36.66 91.885,37.71 91.885,37.99 C91.885,38.76 91.955,39.39 92.095,40.02 Z M94.615,18.81 C95.595,17.41 96.085,15.66 96.085,13.56 C96.085,11.25 95.245,10.34 93.215,9.22 C93.145,10.9 93.075,13.42 93.075,16.85 L93.075,20.63 C93.285,20.42 93.845,19.86 94.615,18.81 Z M120.515,24.06 C120.515,22.59 120.445,20.21 120.305,16.99 C120.235,13.77 120.165,11.46 120.165,10.13 C120.165,6.84 120.585,4.39 121.495,2.92 C122.125,1.8 123.035,1.24 124.225,1.24 C127.305,1.24 128.915,2.85 129.195,6 C129.335,8.03 129.475,10.34 129.475,12.86 C129.475,14.12 129.475,15.45 129.405,16.92 C129.335,19.79 129.125,23.92 129.055,25.95 L128.845,30.15 C128.775,31.06 128.705,32.46 128.495,34.35 C128.285,36.24 128.075,37.71 127.795,38.83 C127.305,41 126.185,44.29 124.785,45.9 C123.455,47.37 121.215,48.77 118.625,48.77 C117.155,48.77 115.965,48.42 115.055,47.79 C112.185,45.9 110.225,42.96 109.035,38.97 C107.985,35.47 107.425,30.29 107.425,23.36 L107.425,19.02 C107.425,17.06 107.495,15.59 107.495,14.68 C107.495,10.69 107.775,7.61 108.335,5.44 C108.965,2.85 110.715,0.89 113.165,0.89 C114.495,0.89 115.405,1.59 115.755,2.92 C116.035,4.11 116.175,5.3 116.175,6.49 C116.175,7.26 116.105,8.38 115.965,9.71 C115.895,11.04 115.825,11.88 115.825,12.23 C115.615,18.32 115.475,22.03 115.475,23.36 C115.475,28.26 115.755,32.18 116.385,35.05 C116.805,37.01 117.295,38.13 117.785,38.34 C118.345,38.34 118.765,37.99 118.975,37.22 C120.025,34 120.515,29.59 120.515,24.06 Z M132.695,11.46 C132.905,7.05 135.215,3.69 139.555,1.31 C140.605,0.75 141.865,0.4 143.475,0.4 C146.065,0.4 148.585,1.87 150.895,4.88 C152.155,6.63 152.785,8.8 152.785,11.39 C152.785,13.42 152.645,14.82 152.085,16.43 C151.595,17.76 151.595,17.76 150.895,19.23 L150.335,20.42 L149.635,21.75 L148.935,23.01 C148.865,23.22 147.815,24.41 147.745,25.04 C147.745,25.11 147.815,25.25 147.885,25.32 C149.075,26.44 150.125,28.33 150.965,30.92 C151.805,33.51 152.225,36.03 152.225,38.62 L152.225,41.14 C152.225,45.83 151.175,48.21 149.075,48.21 C145.575,48.21 143.685,46.46 143.475,42.89 C143.475,42.68 143.405,41.21 143.265,38.48 C143.125,35.75 143.055,33.79 142.775,32.67 C142.425,30.99 141.935,30.08 141.585,29.87 L141.375,29.87 C141.235,29.87 141.165,29.87 141.165,29.94 C141.095,30.43 141.095,31.9 141.025,34.35 C140.955,36.73 140.885,38.27 140.815,39.04 C140.745,39.6 140.745,40.51 140.675,41.84 C140.605,44.43 140.325,46.25 139.485,47.37 C138.995,48 138.155,48.35 136.965,48.35 C135.355,48.35 134.025,47.93 132.975,47.09 C132.345,46.46 131.995,45.27 131.995,43.45 L131.995,35.68 C131.995,34.07 132.065,32.81 132.065,31.97 C132.065,31.2 132.135,30.01 132.135,28.4 C132.205,26.79 132.205,25.6 132.205,24.76 C132.415,18.67 132.555,14.26 132.695,11.46 Z M141.515,21.54 L141.585,21.61 C142.215,20.84 142.845,19.72 143.405,18.25 C144.035,16.71 144.315,15.31 144.315,14.12 C144.315,12.37 143.965,10.83 143.335,9.43 C143.125,9.08 142.845,8.87 142.635,8.87 C142.005,8.87 141.235,9.99 141.235,10.76 C141.235,12.3 141.025,15.03 141.025,16.5 L141.025,16.71 C141.025,18.95 141.165,20.56 141.515,21.54 Z M179.175,6.14 C179.175,8.17 179.035,11.25 178.825,15.45 C178.615,19.65 178.475,22.73 178.475,24.62 C178.475,25.81 178.405,27.49 178.335,29.59 C178.265,31.62 178.265,33.3 178.265,34.63 C178.265,39.32 177.915,42.47 177.215,44.08 L177.215,44.15 C176.515,45.13 176.025,46.25 174.765,46.53 C174.205,46.6 173.715,46.67 173.225,46.67 C170.915,46.67 169.445,45.83 168.605,44.08 C167.905,42.61 167.275,40.58 166.785,38.06 C166.295,35.54 165.875,32.53 165.455,29.03 L164.615,22.38 C164.475,21.12 164.195,20.49 163.985,20.49 C163.775,20.49 163.705,20.98 163.705,22.03 C163.705,22.59 163.775,24.13 163.775,24.69 C163.985,31.48 164.125,36.66 164.125,40.37 C164.125,43.38 163.845,45.48 163.215,46.6 C162.585,47.72 161.535,48.28 160.065,48.28 C158.595,48.28 157.475,47.72 156.845,46.6 C156.215,45.48 155.865,43.45 155.585,40.58 C155.445,38.69 155.305,36.59 155.305,34.21 C155.305,33.72 155.375,32.25 155.375,31.76 L155.375,22.24 C155.375,21.19 155.305,19.65 155.235,17.62 C155.165,15.59 155.165,13.98 155.165,12.93 C155.165,6.28 156.775,2.15 162.165,2.15 C164.825,2.15 166.785,3.69 167.975,6.84 C168.255,7.61 168.465,8.38 168.675,9.22 C169.165,10.9 169.515,13.63 169.725,14.68 C170.005,16.22 170.285,16.99 170.565,16.99 C170.775,16.99 170.985,15.59 171.055,12.86 C171.125,9.85 171.195,8.52 171.685,5.51 C172.245,2.5 173.505,0.89 175.465,0.89 C177.915,0.89 179.175,2.64 179.175,6.14 Z M22.235,64.85 C22.235,66.6 22.025,68.14 21.325,69.33 C19.995,71.57 17.055,71.64 15.795,69.19 C15.025,67.65 14.395,64.15 13.205,64.5 C11.875,64.5 11.175,65.34 11.175,67.02 C11.175,67.93 11.385,68.91 11.735,69.89 C12.645,72.41 14.115,75.07 16.285,77.8 C18.455,80.53 19.995,82.91 20.905,85.01 C21.815,87.04 22.305,89.21 22.305,91.66 C22.305,94.46 21.745,97.05 20.485,99.43 C19.785,100.76 18.455,101.88 16.565,102.79 C14.675,103.7 13.065,104.12 11.595,104.12 C4.035,104.12 0.885,99.71 0.885,90.96 L0.885,90.05 C0.885,86.76 2.145,84.73 4.665,84.03 C5.085,83.89 5.435,83.82 5.785,83.82 C7.535,83.82 8.655,85.71 9.005,87.46 C9.215,88.37 9.355,89.49 9.565,90.96 C9.775,92.43 9.985,93.41 10.125,93.97 C10.335,95.16 10.615,95.86 10.965,96.07 C10.965,96.14 11.105,96.14 11.175,96.21 C12.365,96.21 12.925,95.02 12.925,92.64 C12.925,90.19 12.645,88.37 12.085,87.18 C11.245,85.43 9.775,83.4 7.885,80.74 L4.525,76.12 C2.775,73.74 2.215,71.01 2.215,68.35 C2.215,65.2 2.915,62.4 4.245,59.95 C5.645,57.5 7.605,56.03 10.125,55.33 C10.755,55.19 11.245,55.05 11.595,55.05 C17.755,55.05 22.235,58.55 22.235,64.43 L22.235,64.85 Z M36.235,56.38 L36.655,56.38 C39.245,56.38 41.205,57.36 42.605,59.32 C44.425,61.91 45.475,66.6 45.475,73.39 C45.475,77.52 45.405,81.72 45.335,85.99 C45.265,90.12 44.705,93.41 43.935,95.93 C43.235,98.17 42.045,99.99 40.155,101.32 C38.195,102.65 36.165,103.28 33.995,103.28 C32.105,103.28 30.355,102.44 28.675,100.76 C25.945,98.03 24.545,92.15 24.545,83.26 C24.545,77.94 25.175,72.34 26.505,66.39 C26.925,64.5 27.555,62.61 28.535,61 C30.355,57.99 32.945,56.38 36.235,56.38 Z M37.425,77.17 L37.425,72.06 C37.425,69.47 36.935,68.14 36.025,68.14 C34.695,68.14 33.855,69.89 33.505,73.46 L33.505,73.74 L33.435,74.23 C33.155,76.26 33.155,78.71 33.155,81.58 C33.155,83.19 33.225,85.15 33.435,87.46 C33.435,89.07 33.505,92.71 35.395,92.71 C36.305,92.71 36.795,91.66 37.005,89.56 C37.215,87.74 37.355,85.22 37.355,82.07 C37.355,80.88 37.425,78.22 37.425,77.17 Z M56.325,85.57 L56.325,86.55 C56.325,87.25 56.325,88.51 56.395,90.26 C56.465,92.01 56.465,93.41 56.465,94.32 L56.465,95.65 C56.465,97.96 56.115,100.06 55.625,101.81 C55.415,102.72 54.505,103.21 53.035,103.21 C49.745,103.21 48.065,100.83 48.065,96.07 C48.065,85.57 48.345,76.75 48.905,69.54 C49.255,64.71 49.815,61.42 50.445,59.81 C51.495,57.36 53.175,55.89 55.625,55.4 C55.835,55.33 56.185,55.33 56.675,55.33 C58.985,55.33 60.805,57.01 61.715,59.6 C62.205,60.93 62.555,62.19 62.765,63.52 L63.535,67.86 C63.815,69.47 64.025,70.73 64.235,71.5 C64.935,74.16 65.355,75.49 65.565,75.49 C66.055,75.84 66.965,70.52 67.105,69.96 C68.645,64.08 70.605,59.74 72.915,56.94 C73.825,55.82 75.225,55.26 77.115,55.26 C79.565,55.26 81.035,55.96 81.595,57.29 C82.925,60.23 83.555,64.64 83.555,70.59 C83.555,71.5 83.485,72.9 83.485,74.79 L83.485,78.78 C83.485,80.11 83.485,82.14 83.555,84.8 C83.625,87.46 83.695,89.49 83.695,90.89 C83.695,91.52 83.765,93.41 83.765,94.25 C83.765,95.51 83.695,96.7 83.555,97.89 C83.205,101.53 81.945,103.35 79.775,103.35 C76.975,103.35 75.435,102.02 75.225,99.29 C75.225,99.08 75.085,92.43 74.595,79.34 C74.525,76.61 74.245,75.21 74.035,75.21 C73.825,75.21 73.545,75.84 73.335,77.03 L72.495,81.44 C72.145,83.19 71.935,84.31 71.795,84.94 C70.885,89.49 69.765,93.2 68.855,96.07 C68.785,96.35 68.435,98.17 68.155,98.52 C67.875,99.29 66.895,100.76 65.355,100.48 C63.045,100.48 61.575,99.01 60.665,96.14 C60.245,94.81 59.545,91.24 58.775,85.43 C58.005,79.62 57.515,76.54 57.445,76.12 C57.235,75 56.955,75.07 56.745,75.91 C56.465,77.24 56.325,80.46 56.325,85.57 Z M86.915,91.66 L86.915,86.2 C86.915,84.94 86.845,83.19 86.775,81.02 C86.705,78.85 86.635,77.1 86.635,75.91 L86.635,72.76 C86.635,71.36 86.705,70.38 86.705,69.75 C86.705,62.33 87.895,57.92 90.345,56.45 C91.325,55.89 93.355,55.61 96.435,55.61 C99.585,55.61 101.545,55.89 102.315,56.52 C103.225,57.29 103.645,58.41 103.645,59.95 C103.645,60.72 103.435,61.49 103.085,62.26 C102.175,64.01 100.915,64.99 99.375,64.99 L97.625,64.99 C96.995,64.99 96.365,65.06 95.805,65.13 C95.455,66.46 95.245,68.56 95.245,71.36 C95.245,73.67 95.525,74.93 96.085,75.28 C97.485,75.63 101.475,75.63 101.965,77.03 C102.315,77.52 102.525,78.36 102.525,79.41 C102.525,81.86 101.475,84.1 99.585,84.17 C99.305,84.17 97.765,84.24 96.995,84.24 C95.945,84.31 95.455,85.01 95.455,86.41 L95.455,87.6 C95.455,87.95 95.385,88.79 95.385,89.07 C95.385,92.08 95.805,93.69 96.575,93.76 C97.625,93.97 99.025,93.97 99.935,94.18 C101.125,94.39 101.825,94.67 102.595,95.3 C103.295,95.86 103.645,96.77 103.645,98.03 C103.645,99.99 102.665,102.23 101.265,102.86 C100.285,103.28 98.325,103.49 95.315,103.49 C93.845,103.49 92.655,103.49 91.885,103.42 C90.275,103.35 87.965,102.51 87.475,100.9 C87.405,100.83 87.335,100.48 87.265,99.78 C87.055,97.68 86.915,94.95 86.915,91.66 Z M126.255,71.71 L126.255,72.2 C126.255,74.16 127.095,74.51 129.615,74.51 L130.735,74.51 C133.465,74.51 135.425,74.65 135.775,77.59 L135.775,78.08 C135.775,81.93 134.305,83.82 131.365,83.82 L129.685,83.82 C127.795,83.82 126.815,84.17 126.675,84.8 L126.675,91.8 C126.675,94.6 126.605,96.7 126.465,98.1 C126.115,101.67 124.505,103.49 122.545,103.49 C119.955,103.49 117.505,100.55 117.435,96.42 C117.435,96.14 117.365,95.44 117.365,95.16 C117.225,90.89 117.155,87.53 117.155,85.08 C117.155,75.91 117.715,67.58 118.905,60.23 C119.255,57.78 120.515,56.38 122.545,55.96 C123.455,55.82 124.785,55.68 126.675,55.68 C129.335,55.68 131.505,55.96 133.185,56.31 C135.215,56.8 136.405,57.36 136.685,58.27 C136.825,58.83 136.895,59.39 136.895,59.88 L136.895,60.16 C136.895,61.49 136.405,62.89 135.495,64.22 C134.725,65.41 133.395,65.97 131.505,65.97 C131.015,65.97 129.825,65.83 129.265,65.83 C127.655,65.83 126.815,66.6 126.605,68.07 C126.395,69.26 126.255,70.52 126.255,71.71 Z M151.245,90.12 C150.825,90.12 150.475,90.19 150.265,90.26 C147.115,91.31 148.165,98.03 146.485,100.62 C145.365,102.37 144.105,103.35 142.565,103.35 C139.555,103.35 137.945,101.25 137.945,98.24 C137.945,97.96 138.015,97.47 138.085,96.84 C138.855,91.45 139.625,86.83 140.465,82.98 C140.885,81.09 141.445,78.22 142.145,74.37 C142.355,73.32 143.055,70.45 144.175,65.9 C145.155,61.77 146.625,58.83 148.725,57.08 C149.775,56.17 150.895,55.75 151.945,55.75 C152.295,55.75 152.645,55.75 152.855,55.82 C155.445,56.1 157.545,59.04 158.665,63.03 C159.715,66.95 160.205,68.91 160.485,71.5 C160.765,73.53 161.605,82.07 163.005,97.05 C163.075,98.1 163.145,98.8 163.145,99.29 C163.145,102.23 161.675,103.7 158.735,103.7 C156.145,103.7 153.975,101.74 153.975,98.59 C153.975,97.26 153.835,95.3 153.485,92.71 C153.205,90.96 152.435,90.12 151.245,90.12 Z M150.055,81.79 C150.475,82 151.105,82.07 151.875,82.07 C152.295,82.07 152.575,81.93 152.715,81.72 C152.785,81.37 152.855,80.81 152.855,80.04 C152.855,79.41 152.785,77.24 152.785,76.19 C152.785,72.62 152.085,69.33 151.245,69.33 C150.545,69.33 149.985,70.52 149.635,72.97 C149.285,75.42 149.075,77.52 149.075,79.41 L149.075,80.25 C149.075,81.02 149.425,81.51 150.055,81.79 Z M176.375,56.87 C182.745,56.87 186.035,58.27 186.035,61 L186.035,61.21 C186.035,64.15 185.195,66.04 183.445,66.88 C183.095,67.09 182.185,67.3 180.715,67.51 C179.595,67.79 179.595,68.35 179.595,69.54 L179.595,73.53 C179.595,75.28 179.595,77.87 179.665,81.37 C179.735,84.8 179.735,87.39 179.735,89.14 L179.735,91.31 C179.665,91.8 179.665,92.5 179.665,93.48 L179.665,94.46 C179.665,97.75 179.455,99.99 178.965,101.18 C178.335,102.79 177.215,103.63 175.465,103.63 C173.085,103.63 171.685,102.72 171.195,100.9 C171.055,100.2 170.985,99.36 170.985,98.31 C170.985,97.54 171.055,95.58 171.055,94.67 C171.055,90.26 171.195,83.82 171.405,75.42 C171.405,74.37 171.475,72.06 171.475,71.22 L171.475,70.8 C171.475,70.03 171.405,69.05 171.265,67.86 C171.195,67.58 170.985,67.37 170.705,67.23 C169.585,66.88 167.975,66.53 167.415,66.46 C166.855,66.25 166.015,65.69 165.245,64.57 C164.895,64.08 164.755,63.45 164.755,62.61 L164.755,62.54 C164.755,61.98 164.895,61.42 165.175,60.93 C166.015,58.76 167.625,58.06 170.705,57.43 C172.315,57.15 174.205,56.87 176.375,56.87 Z M199.335,94.95 C199.335,99.36 197.935,103.07 194.645,103.07 C191.285,103.07 189.465,100.2 189.465,96.77 L189.465,96.7 C189.465,92.99 191.565,89.63 194.575,89.63 C197.095,89.63 199.195,91.52 199.265,93.83 C199.265,94.11 199.335,94.74 199.335,94.95 Z M197.025,54.14 C200.595,54.14 202.555,56.24 202.555,59.81 C202.555,62.4 202.065,65.34 200.945,68.63 C200.385,70.31 199.475,73.18 198.285,77.31 C197.095,81.37 196.185,84.38 195.555,86.27 C195.415,86.62 195.205,86.76 194.855,86.76 C194.365,86.76 193.945,86.34 193.595,85.43 C191.425,79.97 189.955,74.51 189.185,69.12 C189.115,68.63 189.045,67.44 189.045,65.69 C189.045,62.75 189.815,60.02 191.425,57.57 C192.895,55.26 194.785,54.14 197.025,54.14 Z" id="path-1"></path>
        <filter x="-0.5%" y="-1.0%" width="102.0%" height="103.9%" filterUnits="objectBoundingBox" id="filter-2">
            <feOffset dx="2" dy="2" in="SourceAlpha" result="shadowOffsetOuter1"></feOffset>
            <feColorMatrix values="0 0 0 0 1   0 0 0 0 1   0 0 0 0 1  0 0 0 1 0" type="matrix" in="shadowOffsetOuter1"></feColorMatrix>
        </filter>
    </defs>
    <g id="Page-1" stroke="none" stroke-width="1" fill="none" fill-rule="evenodd">
        <g id="Go-burn-some-fat!">
            <use fill="black" fill-opacity="1" filter="url(#filter-2)" xlink:href="#path-1"></use>
            <use fill="#4C2F2F" fill-rule="evenodd" xlink:href="#path-1"></use>
        </g>
    </g>
</svg>